<svg width="191" height="73" viewBox="0 0 191 73" fill="none" xmlns="http://www.w3.org/2000/svg">
<path d="M10.769 44.906H15.5615L26.3448 67.2H21.595L19.8121 63.4486H6.78945L5.06356 67.2H0.299535L10.769 44.906ZM18.0291 59.7258L13.2081 49.5987L8.51534 59.7258H18.0291ZM33.0549 44.906H37.5765L51.4692 52.1804V44.906H55.9907V67.2H51.4692V56.973L37.5765 49.7414V67.2H33.0549V44.906ZM65.105 60.5674C65.9133 61.0238 66.7311 61.4375 67.5584 61.8083C68.3952 62.1697 69.2605 62.4787 70.1543 62.7355C71.0482 62.9827 71.9848 63.1729 72.9643 63.306C73.9532 63.4391 75.004 63.5057 76.1165 63.5057C77.4573 63.5057 78.5984 63.4201 79.5398 63.2489C80.4812 63.0683 81.2466 62.8258 81.8362 62.5215C82.4353 62.2077 82.8679 61.8369 83.1342 61.4089C83.4099 60.981 83.5478 60.5151 83.5478 60.0111C83.5478 59.2029 83.2103 58.5657 82.5351 58.0998C81.86 57.6244 80.8187 57.3866 79.4114 57.3866C78.7933 57.3866 78.1419 57.4294 77.4573 57.515C76.7726 57.5911 76.0785 57.6767 75.3748 57.7717C74.6806 57.8668 73.9912 57.9572 73.3066 58.0427C72.6315 58.1188 71.9943 58.1569 71.3953 58.1569C70.3968 58.1569 69.4364 58.0285 68.514 57.7717C67.6012 57.515 66.7881 57.1299 66.075 56.6164C65.3713 56.1029 64.8103 55.461 64.3919 54.6908C63.9735 53.9206 63.7643 53.022 63.7643 51.995C63.7643 51.3864 63.8451 50.7826 64.0068 50.1835C64.1779 49.5845 64.4442 49.0139 64.8055 48.4719C65.1764 47.9204 65.6518 47.4116 66.2319 46.9457C66.8119 46.4703 67.5108 46.0614 68.3286 45.719C69.1559 45.3767 70.1068 45.1105 71.1813 44.9203C72.2654 44.7206 73.4968 44.6207 74.8756 44.6207C75.874 44.6207 76.8772 44.6778 77.8852 44.7919C78.8932 44.8965 79.8726 45.0486 80.8235 45.2483C81.7839 45.448 82.7063 45.6905 83.5906 45.9758C84.475 46.2515 85.2975 46.5606 86.0582 46.9029L84.0756 50.5544C83.448 50.2786 82.7728 50.0266 82.0502 49.7984C81.3275 49.5607 80.5715 49.3562 79.7822 49.1851C78.993 49.0139 78.1752 48.8808 77.3289 48.7857C76.4921 48.6811 75.6363 48.6288 74.7615 48.6288C73.5158 48.6288 72.4888 48.7191 71.6805 48.8998C70.8818 49.0805 70.2447 49.3135 69.7692 49.5987C69.2938 49.8745 68.961 50.1883 68.7708 50.5401C68.5901 50.8824 68.4998 51.2248 68.4998 51.5671C68.4998 52.2327 68.7993 52.7795 69.3984 53.2074C69.9974 53.6258 70.9103 53.835 72.137 53.835C72.6315 53.835 73.1972 53.8017 73.8343 53.7352C74.481 53.6591 75.1561 53.5783 75.8598 53.4927C76.5729 53.4071 77.2956 53.331 78.0278 53.2645C78.7695 53.1884 79.4875 53.1503 80.1816 53.1503C81.4939 53.1503 82.654 53.2977 83.6619 53.5925C84.6794 53.8873 85.5305 54.3105 86.2151 54.862C86.8998 55.404 87.418 56.0649 87.7698 56.8446C88.1217 57.6148 88.2976 58.4802 88.2976 59.4406C88.2976 60.7243 87.9981 61.8701 87.399 62.8781C86.8094 63.8765 85.9631 64.7228 84.8601 65.417C83.7665 66.1017 82.4448 66.6247 80.8948 66.986C79.3448 67.3378 77.6189 67.5137 75.7171 67.5137C74.4619 67.5137 73.2353 67.4329 72.0371 67.2713C70.839 67.1191 69.6884 66.9004 68.5854 66.6151C67.4918 66.3204 66.4458 65.9733 65.4474 65.5739C64.4584 65.165 63.5408 64.7181 62.6945 64.2331L65.105 60.5674ZM104.151 44.906H108.943L119.726 67.2H114.977L113.194 63.4486H100.171L98.4453 67.2H93.6812L104.151 44.906ZM111.411 59.7258L106.59 49.5987L101.897 59.7258H111.411ZM133.297 61.68L123.555 44.906H128.676L135.537 57.5863L142.312 44.906H147.433L137.819 61.6514V67.2H133.297V61.68Z" fill="white"/>
<path d="M38.9032 29.2659C38.9032 33.3153 35.4179 36.7724 30.898 36.7724C26.378 36.7724 22.8928 33.3153 22.8928 29.2659C22.8928 25.2164 26.378 21.7593 30.898 21.7593C35.4179 21.7593 38.9032 25.2164 38.9032 29.2659Z" stroke="white" stroke-width="4.06383"/>
<line x1="53.6315" y1="2.98077" x2="53.6315" y2="38.7502" stroke="white" stroke-width="4.06383"/>
<path d="M102.92 19.3751C102.92 28.8571 94.8002 36.7183 84.5637 36.7183C74.3272 36.7183 66.2077 28.8571 66.2077 19.3751C66.2077 9.89303 74.3272 2.03191 84.5637 2.03191C94.8002 2.03191 102.92 9.89303 102.92 19.3751Z" stroke="white" stroke-width="4.06383"/>
<ellipse cx="84.6642" cy="19.6731" rx="5.64588" ry="5.36541" fill="white"/>
<path d="M128.281 29.2659C128.281 33.3153 124.796 36.7724 120.276 36.7724C115.756 36.7724 112.271 33.3153 112.271 29.2659C112.271 25.2164 115.756 21.7593 120.276 21.7593C124.796 21.7593 128.281 25.2164 128.281 29.2659Z" stroke="white" stroke-width="4.06383"/>
</svg>
