<svg width="208" height="34" viewBox="0 0 208 34" fill="none" xmlns="http://www.w3.org/2000/svg">
<path d="M0.0723829 26V1.5H4.55238V11.685H15.5424V1.5H20.0224V26H15.5424V15.325H4.55238V26H0.0723829ZM36.2643 26.42C33.8143 26.42 31.6676 25.8833 29.8243 24.81C28.0043 23.7367 26.5693 22.255 25.5193 20.365C24.4926 18.4517 23.9793 16.2467 23.9793 13.75C23.9793 11.2533 24.4926 9.06 25.5193 7.17C26.5693 5.25667 28.0043 3.76333 29.8243 2.69C31.6676 1.61667 33.8143 1.08 36.2643 1.08C38.691 1.08 40.826 1.61667 42.6693 2.69C44.5126 3.76333 45.9476 5.25667 46.9743 7.17C48.001 9.06 48.5143 11.2533 48.5143 13.75C48.5143 16.2467 48.001 18.4517 46.9743 20.365C45.9476 22.255 44.5126 23.7367 42.6693 24.81C40.826 25.8833 38.691 26.42 36.2643 26.42ZM36.2643 22.395C38.5976 22.395 40.4526 21.625 41.8293 20.085C43.2293 18.545 43.9293 16.4333 43.9293 13.75C43.9293 11.0667 43.2293 8.955 41.8293 7.415C40.4526 5.875 38.5976 5.105 36.2643 5.105C33.931 5.105 32.0643 5.875 30.6643 7.415C29.2643 8.955 28.5643 11.0667 28.5643 13.75C28.5643 16.4333 29.2643 18.545 30.6643 20.085C32.0643 21.625 33.931 22.395 36.2643 22.395ZM60.8348 26.42C59.0382 26.42 57.4515 26.1167 56.0748 25.51C54.6982 24.88 53.6132 23.9933 52.8198 22.85C52.0265 21.6833 51.6182 20.2717 51.5948 18.615H56.3198C56.3665 19.7583 56.7748 20.7267 57.5448 21.52C58.3382 22.29 59.4232 22.675 60.7998 22.675C61.9898 22.675 62.9348 22.395 63.6348 21.835C64.3348 21.2517 64.6848 20.4817 64.6848 19.525C64.6848 18.5217 64.3698 17.74 63.7398 17.18C63.1332 16.62 62.3165 16.165 61.2898 15.815C60.2632 15.465 59.1665 15.0917 57.9998 14.695C56.1098 14.0417 54.6632 13.2017 53.6598 12.175C52.6798 11.1483 52.1898 9.78333 52.1898 8.08C52.1665 6.63333 52.5048 5.39667 53.2048 4.37C53.9282 3.32 54.9082 2.515 56.1448 1.955C57.3815 1.37167 58.8048 1.08 60.4148 1.08C62.0482 1.08 63.4832 1.37167 64.7198 1.955C65.9798 2.53833 66.9598 3.355 67.6598 4.405C68.3832 5.455 68.7682 6.70333 68.8148 8.15H64.0198C63.9965 7.28666 63.6582 6.52833 63.0048 5.875C62.3748 5.19833 61.4882 4.86 60.3448 4.86C59.3648 4.83667 58.5365 5.08167 57.8598 5.595C57.2065 6.085 56.8798 6.80833 56.8798 7.765C56.8798 8.58167 57.1365 9.235 57.6498 9.725C58.1632 10.1917 58.8632 10.5883 59.7498 10.915C60.6365 11.2417 61.6515 11.5917 62.7948 11.965C64.0082 12.385 65.1165 12.875 66.1198 13.435C67.1232 13.995 67.9282 14.7417 68.5348 15.675C69.1415 16.585 69.4448 17.7633 69.4448 19.21C69.4448 20.4933 69.1182 21.6833 68.4648 22.78C67.8115 23.8767 66.8432 24.7633 65.5598 25.44C64.2765 26.0933 62.7015 26.42 60.8348 26.42ZM73.3536 26V1.5H82.4186C84.3786 1.5 86.0003 1.82666 87.2836 2.48C88.567 3.13333 89.5236 4.03167 90.1536 5.175C90.7836 6.31833 91.0986 7.60167 91.0986 9.025C91.0986 10.3783 90.7953 11.6267 90.1886 12.77C89.582 13.89 88.637 14.8 87.3536 15.5C86.0703 16.1767 84.4253 16.515 82.4186 16.515H77.8336V26H73.3536ZM77.8336 12.875H82.1386C83.702 12.875 84.822 12.5367 85.4986 11.86C86.1986 11.16 86.5486 10.215 86.5486 9.025C86.5486 7.81167 86.1986 6.86667 85.4986 6.19C84.822 5.49 83.702 5.14 82.1386 5.14H77.8336V12.875ZM94.6134 26V1.5H99.0934V26H94.6134ZM109.547 26V5.105H102.407V1.5H121.202V5.105H114.027V26H109.547ZM120.348 26L129.308 1.5H134.348L143.308 26H138.548L136.588 20.33H127.033L125.038 26H120.348ZM128.258 16.83H135.363L131.793 6.645L128.258 16.83ZM146.464 26V1.5H150.944V22.5H161.794V26H146.464ZM168.051 5.945C167.235 5.945 166.558 5.7 166.021 5.21C165.508 4.72 165.251 4.10167 165.251 3.355C165.251 2.60833 165.508 2.00167 166.021 1.535C166.558 1.045 167.235 0.799999 168.051 0.799999C168.868 0.799999 169.533 1.045 170.046 1.535C170.583 2.00167 170.851 2.60833 170.851 3.355C170.851 4.10167 170.583 4.72 170.046 5.21C169.533 5.7 168.868 5.945 168.051 5.945ZM165.811 26V8.64H170.291V26H165.811ZM182.702 26C180.882 26 179.424 25.5567 178.327 24.67C177.231 23.7833 176.682 22.2083 176.682 19.945V12.385H173.707V8.64H176.682L177.207 3.985H181.162V8.64H185.852V12.385H181.162V19.98C181.162 20.82 181.337 21.4033 181.687 21.73C182.061 22.0333 182.691 22.185 183.577 22.185H185.747V26H182.702ZM191.869 33.7L195.894 24.845H194.844L188.089 8.64H192.954L197.819 20.855L202.894 8.64H207.654L196.629 33.7H191.869Z" fill="#0556F4"/>
</svg>
