<svg width="188" height="176" viewBox="0 0 188 176" fill="none" xmlns="http://www.w3.org/2000/svg">
<path d="M49.1014 76.4197C48.6534 76.1733 48.2894 75.809 48.0531 75.3706C45.5118 70.7266 43.5635 65.8787 42.2081 60.8269C41.1027 56.7184 40.5923 52.7678 40.677 48.975C40.8464 41.4134 42.8096 34.2015 46.5665 27.3393C50.5944 19.9855 56.2022 13.9386 63.3898 9.19863C71.9667 3.53943 81.3631 0.49 91.5791 0.0503718C95.8104 -0.129476 100.025 0.172275 104.222 0.955611C113.066 2.60621 120.942 6.12723 127.85 11.5187C131.094 14.0485 134.015 16.9321 136.611 20.1693C143.87 29.2217 147.443 39.471 147.329 50.9173C147.286 55.2057 146.242 60.0396 144.197 65.419C141.054 73.6761 136.499 82.1929 130.531 90.9694C125.482 98.3951 119.368 105.815 112.189 113.229C109.101 116.418 105.876 119.132 102.513 121.37C99.7769 123.192 97.3924 124.233 95.3593 124.493C92.5766 124.849 89.8659 124.227 87.2272 122.629C84.9908 121.274 82.8943 119.761 80.9375 118.09C79.7515 117.075 77.8837 115.325 75.3339 112.839C72.081 109.662 69.4085 106.694 67.3161 103.936C66.7316 103.161 66.5664 102.314 66.8206 101.395C66.9815 100.811 67.4432 100.138 68.2056 99.3743C74.8638 92.7079 79.8087 88.0079 83.0404 85.2742C84.5101 84.0353 84.8087 82.7863 83.9362 81.5274C83.5169 80.9239 82.9747 80.5562 82.3098 80.4244C81.5177 80.2725 80.8083 80.4903 80.1814 81.0778C75.5224 85.4741 70.8633 89.8704 66.2043 94.2666C65.3869 95.038 64.6351 95.6235 63.9489 96.0231C63.2458 96.4348 62.5787 96.5087 61.9476 96.2449C61.342 95.9931 60.7765 95.5336 60.2513 94.8661C57.0197 90.7656 54.7155 87.3445 53.339 84.6028C52.7376 83.3998 53.0362 82.2048 54.2348 81.0178C58.6397 76.6375 63.0023 72.3612 67.3225 68.1887C68.2373 67.3054 68.3178 66.3602 67.5639 65.3531C66.8989 64.4658 66.0878 64.0902 65.1306 64.2261C64.5419 64.306 63.8663 64.6977 63.1039 65.4011C59.3047 68.9021 55.5012 72.4011 51.6935 75.8982C51.2403 76.3178 50.8676 76.5656 50.5753 76.6415C50.101 76.7694 49.6097 76.6955 49.1014 76.4197ZM123.979 49.5737C125.466 48.1659 126.299 46.2585 126.296 44.2711C126.292 42.2836 125.452 40.379 123.96 38.9761L111.206 26.9836C109.714 25.5807 107.693 24.7945 105.587 24.798C103.48 24.8015 101.462 25.5943 99.9751 27.0021L70.8434 54.587C69.3567 55.9948 68.5235 57.9022 68.5272 59.8896C68.5308 61.877 69.371 63.7817 70.8629 65.1846L83.6167 77.1771C85.1086 78.58 87.13 79.3661 89.2362 79.3627C91.3425 79.3592 93.361 78.5664 94.8477 77.1586L123.979 49.5737Z" fill="#7774D5"/>
<path d="M94.8477 77.1586C93.361 78.5664 91.3425 79.3592 89.2362 79.3627C87.13 79.3661 85.1086 78.58 83.6167 77.1771L70.8629 65.1846C69.371 63.7817 68.5308 61.877 68.5272 59.8896C68.5235 57.9022 69.3567 55.9948 70.8434 54.587L99.9751 27.0021C101.462 25.5943 103.48 24.8015 105.587 24.798C107.693 24.7945 109.714 25.5807 111.206 26.9836L123.96 38.9761C125.452 40.379 126.292 42.2836 126.296 44.2711C126.299 46.2585 125.466 48.1659 123.979 49.5737L94.8477 77.1586ZM110.296 50.9356C111.494 51.4871 112.53 51.5551 113.402 51.1394C114.796 50.472 114.955 49.6027 113.879 48.5316C110.088 44.7668 106.435 41.2478 102.92 37.9746C102.005 37.1233 100.91 36.4319 99.6349 35.9003C99.5457 35.863 99.4491 35.8439 99.3517 35.8443C99.2542 35.8447 99.158 35.8645 99.0697 35.9025C98.9813 35.9405 98.9026 35.9958 98.8391 36.0647C98.7755 36.1336 98.7284 36.2145 98.701 36.302C98.1419 38.0765 98.3071 39.6312 99.1965 40.966C99.3617 41.2098 100.421 42.2609 102.373 44.1194C104.19 45.8539 106.039 47.5585 107.92 49.233C108.856 50.0723 109.648 50.6399 110.296 50.9356ZM78.9806 51.7029C80.8865 52.3384 82.5384 52.2345 83.9361 51.3912C84.0759 51.3073 85.1644 50.3021 87.2016 48.3758C88.8196 46.8491 90.4376 45.3243 92.0555 43.8016C93.9742 41.9872 94.9886 41.002 95.0987 40.8461C95.9712 39.5872 96.1449 38.1164 95.6197 36.4339C95.5983 36.3639 95.56 36.2997 95.5076 36.2461C95.4553 36.1926 95.3903 36.1512 95.3178 36.1251C95.2453 36.099 95.1672 36.0889 95.0895 36.0957C95.0119 36.1025 94.9367 36.1259 94.87 36.1641C93.4638 36.9754 92.2101 37.8986 91.1089 38.9338C86.8946 42.9064 82.7946 46.943 78.809 51.0435C78.7608 51.093 78.7263 51.1529 78.7086 51.218C78.6909 51.2831 78.6905 51.3513 78.7075 51.4166C78.7244 51.4819 78.7583 51.5422 78.8059 51.5921C78.8536 51.6421 78.9136 51.6802 78.9806 51.7029ZM113.898 53.8132C112.149 53.4015 110.662 53.5354 109.438 54.2148C109.201 54.3507 108.193 55.2479 106.414 56.9065C103.894 59.2566 101.41 61.6405 98.9615 64.0585C98.1652 64.8458 97.6887 65.6032 97.532 66.3306C97.3414 67.2258 97.3732 68.145 97.6273 69.0882C97.6591 69.209 97.7239 69.3199 97.8151 69.4097C97.9064 69.4996 98.021 69.5654 98.1475 69.6005C98.274 69.6357 98.4081 69.639 98.5364 69.6101C98.6647 69.5812 98.7828 69.5212 98.8789 69.436C103.805 65.0317 108.616 60.4975 113.313 55.8335C113.606 55.5457 113.906 55.0781 114.216 54.4306C114.245 54.3716 114.259 54.3072 114.258 54.242C114.258 54.1769 114.241 54.1125 114.211 54.0536C114.181 53.9947 114.137 53.9426 114.083 53.9011C114.029 53.8595 113.966 53.8295 113.898 53.8132ZM91.0708 69.0822C91.7696 69.7017 92.5638 70.1234 93.4532 70.3472C93.5985 70.384 93.7526 70.371 93.8878 70.3106C94.0231 70.2501 94.1303 70.1461 94.1902 70.0174C95.1093 68.0751 95.1157 66.3705 94.2093 64.9038C94.0017 64.5641 92.8708 63.437 90.8166 61.5226C88.8175 59.6602 86.8014 57.8198 84.7684 56.0013C82.8539 54.2868 80.7065 53.997 78.3262 55.132C78.2174 55.1827 78.132 55.2693 78.0864 55.3754C78.0407 55.4815 78.0379 55.5996 78.0784 55.7076C78.6036 57.1503 79.4443 58.3893 80.6006 59.4244C81.2656 60.0199 81.6087 60.3277 81.6299 60.3476C84.7175 63.3171 87.8645 66.2286 91.0708 69.0822Z" fill="white"/>
<path d="M107.92 49.233C106.039 47.5585 104.19 45.8539 102.373 44.1194C100.421 42.2609 99.3617 41.2098 99.1965 40.966C98.3071 39.6312 98.1419 38.0765 98.701 36.302C98.7284 36.2145 98.7755 36.1336 98.8391 36.0647C98.9026 35.9958 98.9813 35.9405 99.0697 35.9025C99.158 35.8645 99.2542 35.8447 99.3517 35.8443C99.4491 35.8439 99.5457 35.863 99.6349 35.9003C100.91 36.4319 102.005 37.1233 102.92 37.9746C106.435 41.2478 110.088 44.7668 113.879 48.5316C114.955 49.6027 114.796 50.472 113.402 51.1394C112.53 51.5551 111.494 51.4871 110.296 50.9356C109.648 50.6399 108.856 50.0723 107.92 49.233Z" fill="#7774D5"/>
<path d="M78.9806 51.7029C78.9136 51.6802 78.8536 51.6421 78.8059 51.5921C78.7583 51.5422 78.7244 51.4819 78.7075 51.4166C78.6905 51.3513 78.6909 51.2831 78.7086 51.218C78.7263 51.1529 78.7608 51.093 78.809 51.0435C82.7946 46.943 86.8946 42.9064 91.1089 38.9338C92.2101 37.8986 93.4638 36.9754 94.87 36.1641C94.9367 36.1259 95.0119 36.1025 95.0895 36.0957C95.1672 36.0889 95.2453 36.099 95.3178 36.1251C95.3903 36.1512 95.4553 36.1926 95.5076 36.2461C95.56 36.2997 95.5983 36.3639 95.6197 36.4339C96.1449 38.1164 95.9712 39.5872 95.0987 40.8461C94.9886 41.002 93.9742 41.9872 92.0555 43.8016C90.4376 45.3243 88.8196 46.8491 87.2016 48.3758C85.1644 50.3021 84.0759 51.3073 83.9361 51.3912C82.5384 52.2345 80.8865 52.3384 78.9806 51.7029Z" fill="#7774D5"/>
<path d="M113.898 53.8132C113.966 53.8295 114.029 53.8595 114.083 53.9011C114.137 53.9426 114.181 53.9947 114.211 54.0536C114.241 54.1125 114.258 54.1769 114.258 54.242C114.259 54.3072 114.245 54.3716 114.216 54.4306C113.906 55.0781 113.606 55.5457 113.313 55.8335C108.616 60.4975 103.805 65.0317 98.8789 69.436C98.7828 69.5212 98.6647 69.5812 98.5364 69.6101C98.4081 69.639 98.274 69.6357 98.1475 69.6005C98.021 69.5654 97.9064 69.4996 97.8151 69.4097C97.7239 69.3199 97.6591 69.209 97.6273 69.0882C97.3732 68.145 97.3414 67.2258 97.532 66.3306C97.6887 65.6032 98.1652 64.8458 98.9615 64.0585C101.41 61.6405 103.894 59.2566 106.414 56.9065C108.193 55.2479 109.201 54.3507 109.438 54.2148C110.662 53.5354 112.149 53.4015 113.898 53.8132Z" fill="#7774D5"/>
<path d="M91.0708 69.0822C87.8645 66.2286 84.7175 63.3171 81.6299 60.3476C81.6087 60.3277 81.2656 60.0199 80.6006 59.4244C79.4443 58.3893 78.6036 57.1503 78.0784 55.7076C78.0379 55.5996 78.0407 55.4815 78.0864 55.3754C78.132 55.2693 78.2174 55.1827 78.3262 55.132C80.7065 53.997 82.8539 54.2868 84.7684 56.0013C86.8014 57.8198 88.8175 59.6602 90.8166 61.5226C92.8708 63.437 94.0017 64.5641 94.2093 64.9038C95.1157 66.3705 95.1093 68.0751 94.1902 70.0174C94.1303 70.1461 94.0231 70.2501 93.8878 70.3106C93.7526 70.371 93.5985 70.384 93.4532 70.3472C92.5638 70.1234 91.7696 69.7017 91.0708 69.0822Z" fill="#7774D5"/>
<path d="M33.0442 167.59V143.09H38.3642L46.1692 158.63L53.8692 143.09H59.1892V167.59H54.7092V150.685L47.8842 164.09H44.3492L37.5242 150.685V167.59H33.0442ZM66.0076 175.29L70.0326 166.435H68.9826L62.2276 150.23H67.0926L71.9576 162.445L77.0326 150.23H81.7926L70.7676 175.29H66.0076Z" fill="#F45D05"/>
<path d="M84.8264 167.59V143.09H93.8214C95.7814 143.09 97.3914 143.428 98.6514 144.105C99.9347 144.758 100.891 145.657 101.521 146.8C102.151 147.92 102.466 149.168 102.466 150.545C102.466 152.038 102.07 153.403 101.276 154.64C100.506 155.877 99.2931 156.775 97.6364 157.335L102.711 167.59H97.5664L93.0164 157.93H89.3064V167.59H84.8264ZM89.3064 154.64H93.5414C95.0347 154.64 96.1314 154.278 96.8314 153.555C97.5314 152.832 97.8814 151.875 97.8814 150.685C97.8814 149.518 97.5314 148.585 96.8314 147.885C96.1547 147.185 95.0464 146.835 93.5064 146.835H89.3064V154.64ZM108.943 147.535C108.126 147.535 107.45 147.29 106.913 146.8C106.4 146.31 106.143 145.692 106.143 144.945C106.143 144.198 106.4 143.592 106.913 143.125C107.45 142.635 108.126 142.39 108.943 142.39C109.76 142.39 110.425 142.635 110.938 143.125C111.475 143.592 111.743 144.198 111.743 144.945C111.743 145.692 111.475 146.31 110.938 146.8C110.425 147.29 109.76 147.535 108.943 147.535ZM106.703 167.59V150.23H111.183V167.59H106.703ZM123.839 168.01C122.206 168.01 120.747 167.613 119.464 166.82C118.181 166.027 117.166 164.942 116.419 163.565C115.672 162.188 115.299 160.625 115.299 158.875C115.299 157.125 115.672 155.573 116.419 154.22C117.166 152.843 118.181 151.77 119.464 151C120.747 150.207 122.206 149.81 123.839 149.81C125.146 149.81 126.289 150.055 127.269 150.545C128.249 151.035 129.042 151.723 129.649 152.61V142.39H134.129V167.59H130.139L129.649 165.105C129.089 165.875 128.342 166.552 127.409 167.135C126.499 167.718 125.309 168.01 123.839 168.01ZM124.784 164.09C126.231 164.09 127.409 163.612 128.319 162.655C129.252 161.675 129.719 160.427 129.719 158.91C129.719 157.393 129.252 156.157 128.319 155.2C127.409 154.22 126.231 153.73 124.784 153.73C123.361 153.73 122.182 154.208 121.249 155.165C120.316 156.122 119.849 157.358 119.849 158.875C119.849 160.392 120.316 161.64 121.249 162.62C122.182 163.6 123.361 164.09 124.784 164.09ZM147.126 168.01C145.376 168.01 143.824 167.637 142.471 166.89C141.118 166.143 140.056 165.093 139.286 163.74C138.516 162.387 138.131 160.823 138.131 159.05C138.131 157.253 138.504 155.655 139.251 154.255C140.021 152.855 141.071 151.77 142.401 151C143.754 150.207 145.341 149.81 147.161 149.81C148.864 149.81 150.369 150.183 151.676 150.93C152.983 151.677 153.998 152.703 154.721 154.01C155.468 155.293 155.841 156.728 155.841 158.315C155.841 158.572 155.829 158.84 155.806 159.12C155.806 159.4 155.794 159.692 155.771 159.995H142.576C142.669 161.348 143.136 162.41 143.976 163.18C144.839 163.95 145.878 164.335 147.091 164.335C148.001 164.335 148.759 164.137 149.366 163.74C149.996 163.32 150.463 162.783 150.766 162.13H155.316C154.989 163.227 154.441 164.23 153.671 165.14C152.924 166.027 151.991 166.727 150.871 167.24C149.774 167.753 148.526 168.01 147.126 168.01ZM147.161 153.45C146.064 153.45 145.096 153.765 144.256 154.395C143.416 155.002 142.879 155.935 142.646 157.195H151.291C151.221 156.052 150.801 155.142 150.031 154.465C149.261 153.788 148.304 153.45 147.161 153.45Z" fill="#7774D4"/>
</svg>
